<svg viewBox="0 0 512 512" xmlns="http://www.w3.org/2000/svg" fill-rule="evenodd" clip-rule="evenodd" stroke-linejoin="round" stroke-miterlimit="2"><path d="M13.812 293.851v75.43c0 41.757 108.399 75.585 242.187 75.585v-75.585c-133.788 0-242.187-33.75-242.187-75.43zM256 218.265l189.453 46.875c32.969-12.89 52.774-29.297 52.774-46.875v-75.547c0-41.718-108.438-75.585-242.187-75.585-133.75 0-242.227 33.75-242.227 75.585v75.547c0 41.64 108.399 75.586 242.187 75.586v-75.586zm189.414 122.656L256 293.851v75.43l189.453 47.07c32.93-12.774 52.735-29.14 52.735-47.07v-75.43c0 17.773-19.805 34.14-52.774 47.07z" fill="#d43d44" fill-rule="nonzero"/></svg>