<svg viewBox="0 0 512 512" xmlns="http://www.w3.org/2000/svg" fill-rule="evenodd" clip-rule="evenodd" stroke-linejoin="round" stroke-miterlimit="2"><g transform="translate(6 6) scale(5.85938)"><clipPath id="prefix__a"><path d="M0 0h85.333v85.333H0z"/></clipPath><g clip-path="url(#prefix__a)"><path d="M4.125 64h34.127a4.132 4.132 0 003.8-2.52L57.85 24.057c.219-.518.33-1.076.324-1.638l-.15-18.329C58.005 1.841 56.149 0 53.9 0H36.234c-.806 0-1.593.236-2.267.678L1.86 21.787A4.128 4.128 0 000 25.234v34.641C0 62.138 1.862 64 4.125 64z" fill="url(#prefix___Linear2)" fill-rule="nonzero" transform="scale(1.33333)"/><path d="M49.013 58h10.862C62.138 58 64 56.138 64 53.875V41.309c0-.2-.014-.4-.044-.598L58.508 3.527A4.139 4.139 0 0054.427 0H39.029c-2.263 0-4.125 1.862-4.125 4.125v.001l.005 18.505c0 .425.066.848.195 1.253l9.979 31.246a4.135 4.135 0 003.93 2.87z" fill="url(#prefix___Linear3)" fill-rule="nonzero" transform="scale(1.33333)"/><path d="M63.4 77.333h16.345c3.017 0 5.5-2.483 5.5-5.5l-.001-.087.09-14.413c-.025-1.574-1.048-3.374-2.244-4.4L32.212 9.324A5.5 5.5 0 0028.632 8H13.5C10.483 8 8 10.483 8 13.5v14.67c0 1.587.685 3.095 1.879 4.14l49.9 43.663a5.498 5.498 0 003.62 1.36z" fill="#ff43f2" fill-rule="nonzero"/><path fill-rule="nonzero" d="M16 16h53.333v53.333H16z"/><path d="M44 58.667H22.667v4H44v-4zM22.683 22.656H30.3c1.896 0 3.595.428 5.095 1.287a9.173 9.173 0 013.522 3.565c.848 1.52 1.272 3.236 1.272 5.152s-.424 3.633-1.272 5.153a9.19 9.19 0 01-3.522 3.566c-1.5.857-3.2 1.285-5.095 1.285h-7.617V22.656zM33.387 38.49c.896-.534 1.586-1.298 2.072-2.294s.729-2.173.729-3.537c0-1.364-.243-2.543-.73-3.537-.485-.996-1.175-1.76-2.071-2.295-.896-.533-1.94-.8-3.131-.8h-3.673V39.29h3.673c1.19 0 2.235-.267 3.13-.8zm13.848 3.165a9.722 9.722 0 01-3.66-3.715c-.884-1.577-1.328-3.337-1.328-5.281 0-1.944.444-3.704 1.329-5.28a9.727 9.727 0 013.659-3.716c1.552-.9 3.288-1.352 5.202-1.352 1.552 0 2.984.277 4.295.83a9.22 9.22 0 013.316 2.329 8.491 8.491 0 011.893 3.458h-4.173a5.224 5.224 0 00-1.236-1.637 5.573 5.573 0 00-1.823-1.07 6.537 6.537 0 00-2.244-.38c-1.181 0-2.248.295-3.201.886a6.154 6.154 0 00-2.237 2.437c-.538 1.034-.807 2.199-.807 3.494 0 1.294.27 2.46.807 3.494a6.146 6.146 0 002.237 2.438c.952.59 2.02.885 3.201.885 1.096 0 2.09-.205 2.98-.615.89-.41 1.599-.977 2.123-1.701a4.39 4.39 0 00.844-2.444l.013.413h-4.701v-3.072h8.475v1.574c0 1.76-.427 3.356-1.28 4.78a9.176 9.176 0 01-3.5 3.366c-1.483.819-3.143 1.228-4.982 1.228-1.84 0-3.65-.45-5.202-1.35v.002-.001z" fill="#fff" fill-rule="nonzero"/></g></g><defs><linearGradient id="prefix___Linear2" x1="0" y1="0" x2="1" y2="0" gradientUnits="userSpaceOnUse" gradientTransform="scale(-82.867) rotate(-45 -.42 .845)"><stop offset="0" stop-color="#7256ff"/><stop offset=".28" stop-color="#7256ff"/><stop offset=".66" stop-color="#00d980"/><stop offset="1" stop-color="#00d980"/></linearGradient><linearGradient id="prefix___Linear3" x1="0" y1="0" x2="1" y2="0" gradientUnits="userSpaceOnUse" gradientTransform="rotate(-114.874 50.182 7.604) scale(58.921)"><stop offset="0" stop-color="#ff43f2"/><stop offset=".3" stop-color="#ff43f2"/><stop offset=".54" stop-color="#7256ff"/><stop offset="1" stop-color="#7256ff"/></linearGradient></defs></svg>