<svg xmlns="http://www.w3.org/2000/svg" viewBox="0 0 64 64"><path fill-rule="evenodd" clip-rule="evenodd" d="M32 4C16.536 4 4 16.536 4 32c0 12.393 8.04 22.896 19.194 26.616 1.404.257 1.92-.608 1.92-1.353 0-.666-.026-2.876-.038-5.241-7.81 1.698-9.455-3.365-9.455-3.365-1.277-3.244-3.117-4.107-3.117-4.107-2.547-1.741.192-1.705.192-1.705 2.818.198 4.302 2.894 4.302 2.894 2.503 4.288 6.567 3.05 8.168 2.332.253-1.814 .98-3.051 1.782-3.752-6.235-.709-12.79-3.118-12.79-13.876 0-3.065 1.094-5.572 2.892-7.534-.291-.71-1.254-3.564.273-7.43 0 0 2.358-.754 7.726 2.879A26.924 26.924 0 0132 19.25c2.39.011 4.797.323 7.045.946 5.362-3.633 7.717-2.879 7.717-2.879 1.529 3.866.568 6.72.278 7.43 1.8 1.962 2.89 4.469 2.89 7.534 0 10.783-6.567 13.16-12.823 13.853 1.008.869 1.907 2.576 1.907 5.192 0 3.751-.034 6.775-.034 7.697 0 .75.507 1.624 1.932 1.35C51.97 54.888 60 44.39 60 32 60 16.536 47.464 4 32 4z" fill="#161514"/></svg>
