<svg xmlns="http://www.w3.org/2000/svg" viewBox="0 0 64 64"><path d="M60.5 14.7c-3.2.1-5.8.9-8.1 2.3-2.1 1.2-3.6 2.8-5.4 4.2-3.2 2.5-6.9 3.7-10.9 3.3-3.1-.3-5.9-1.4-8.5-3.1C23.5 18.4 19 16.8 14.2 17c-3 .1-5.7.9-8.2 2.4L3.5 21v28l2.5-1.8c2.4-1.7 5-2.7 7.9-2.8 3.9-.2 7.4 1.1 10.7 3.1 3.5 2.1 7.2 3.5 11.3 3.4 4.3-.1 8.1-1.6 11.4-4.3 1.7-1.4 3.2-3 5.1-4.1 2.1-1.2 4.4-1.8 6.8-1.9l2.3-.1V14.6l-2.3.1z" fill="#003545"/><path d="M26.7 25.9c2.6 1.6 5.4 2.8 8.5 3.1 4 .4 7.7-.8 10.9-3.3 1.8-1.4 3.3-3 5.4-4.2 2.3-1.4 4.9-2.2 8.1-2.3V14c-3.2.1-5.8.9-8.1 2.3-2.1 1.2-3.6 2.8-5.4 4.2-3.2 2.5-6.9 3.7-10.9 3.3-3.1-.3-5.9-1.4-8.5-3.1C23.5 18.4 19 16.8 14.2 17c-3 .1-5.7.9-8.2 2.4l-2.5 1.7v5.2l2.5-1.8c2.4-1.7 5-2.7 7.9-2.8 4-.2 7.5 1.1 10.8 3.2z" fill="#c0765a"/></svg>
