<svg xmlns="http://www.w3.org/2000/svg" viewBox="0 0 32 32"><path d="M15.821 2C11.286 9.571 13.75 14.964 16 17.143c.464.464.893 1 1.179 1.607.036-.75.357-1.429.857-1.929C20.929 13.893 21.786 8.107 15.821 2z" fill="#599636"/><path d="M16.821 28.214c-.143.893-.75 1.571-1.357 2.143L15 30.5c-.607-.571-1.214-1.25-1.357-2.143-.25-1.25.25-2.214 1.107-3.036l.071-.071.036-.036c.107.143.25.25.357.393.75.893 1.107 1.929.607 3.107z" fill="#6CAC48"/><path d="M15.464 27.571c-.857.821-1.357 1.786-1.107 3.036L15 30.5c.607-.571 1.214-1.25 1.357-2.143.5-1.179.143-2.214-.607-3.107-.107-.143-.25-.25-.357-.393l.071.071v.107c.464.893.464 1.929 0 2.536z" fill="#C2BFBF"/></svg>
