<svg viewBox="0 0 512 512" xmlns="http://www.w3.org/2000/svg" fill-rule="evenodd" clip-rule="evenodd" stroke-linejoin="round" stroke-miterlimit="2"><g transform="translate(6 6) scale(5.85938)"><clipPath id="prefix__a"><path d="M0 0h85.333v85.333H0z"/></clipPath><g clip-path="url(#prefix__a)"><path d="M77.333 21.928V5.583c0-3.018-2.483-5.5-5.5-5.5l-.087.001L57.02.319a5.504 5.504 0 00-4.087 1.921L9.324 53.116A5.508 5.508 0 008 56.696v15.133c.001 3.017 2.483 5.499 5.5 5.499h14.67a5.499 5.499 0 004.14-1.879l43.663-49.9a5.498 5.498 0 001.36-3.621z" fill="#d249fc" fill-rule="nonzero"/><path d="M58 14.988V4.125C58 1.862 56.138 0 53.875 0H41.309c-.2 0-.4.014-.598.044L3.527 5.492A4.139 4.139 0 000 9.573v15.398c0 2.263 1.862 4.125 4.125 4.125h.001l18.505-.005a4.13 4.13 0 001.253-.195l31.246-9.98A4.136 4.136 0 0058 14.988z" fill="url(#prefix___Linear2)" fill-rule="nonzero" transform="scale(1.33333)"/><path d="M64 59.878V25.75a4.132 4.132 0 00-2.52-3.8L24.057 6.153a4.115 4.115 0 00-1.638-.325l-18.329.15C1.84 5.997-.001 7.853 0 10.103v17.665c0 .806.236 1.593.678 2.267l21.109 32.109a4.13 4.13 0 003.447 1.859h34.641c2.263 0 4.125-1.862 4.125-4.125z" fill="url(#prefix___Linear3)" fill-rule="nonzero" transform="scale(1.33333)"/><path fill-rule="nonzero" d="M16 16h53.333v53.333H16z"/><path d="M44 58.667H22.667v4H44v-4zM22.657 22.656h8.59c1.409 0 2.645.257 3.706.772 1.064.515 1.883 1.239 2.46 2.173.576.934.864 2.014.864 3.243 0 1.23-.293 2.345-.878 3.288-.587.944-1.418 1.675-2.494 2.195-1.077.52-2.334.778-3.773.778h-4.573v7.562h-3.903v-20.01l.001-.001zm10.054 8.84c.492-.243.869-.59 1.136-1.043.266-.453.4-.984.4-1.593 0-.61-.134-1.123-.4-1.565a2.67 2.67 0 00-1.136-1.03c-.491-.242-1.064-.364-1.722-.364h-4.43v5.96h4.43c.658 0 1.23-.121 1.722-.364v-.001zm10.718 10.723c-1.12-.524-1.996-1.258-2.63-2.2-.632-.944-.96-2.03-.98-3.26h3.917c0 .582.152 1.092.457 1.53.306.439.73.782 1.272 1.03.543.246 1.167.37 1.872.37.707 0 1.27-.11 1.78-.334.51-.224.904-.536 1.187-.936.283-.4.42-.858.42-1.372 0-.64-.193-1.167-.579-1.587-.386-.419-.917-.71-1.593-.872l-3.53-.787c-.953-.208-1.782-.568-2.487-1.078a5.35 5.35 0 01-1.643-1.894c-.39-.752-.587-1.6-.587-2.544 0-1.142.296-2.17.887-3.08.59-.91 1.415-1.62 2.472-2.13 1.059-.508 2.259-.763 3.603-.763 1.344 0 2.577.248 3.644.744 1.066.496 1.898 1.184 2.493 2.065.596.88.899 1.894.908 3.036H50.41a2.29 2.29 0 00-.387-1.306 2.538 2.538 0 00-1.093-.902 3.891 3.891 0 00-1.622-.32c-.61 0-1.146.102-1.608.307a2.53 2.53 0 00-1.08.857c-.26.376-.394.824-.385 1.28 0 .552.179 1.01.536 1.37.357.364.845.62 1.465.773l3.402.743c.98.2 1.856.58 2.622 1.136a5.935 5.935 0 011.794 2.058c.428.815.642 1.704.642 2.666 0 1.18-.312 2.24-.934 3.18-.626.937-1.5 1.673-2.623 2.208-1.124.533-2.41.8-3.86.8-1.448 0-2.733-.263-3.85-.787v-.001z" fill="#fff" fill-rule="nonzero"/></g></g><defs><linearGradient id="prefix___Linear2" x1="0" y1="0" x2="1" y2="0" gradientUnits="userSpaceOnUse" gradientTransform="scale(-58.92) rotate(-24.874 -.463 2.17)"><stop offset="0" stop-color="#d249fc"/><stop offset=".16" stop-color="#d249fc"/><stop offset=".55" stop-color="#ff2d90"/><stop offset="1" stop-color="#ff2d90"/></linearGradient><linearGradient id="prefix___Linear3" x1="0" y1="0" x2="1" y2="0" gradientUnits="userSpaceOnUse" gradientTransform="scale(82.869) rotate(45 -.038 .085)"><stop offset="0" stop-color="#ff2d90"/><stop offset=".3" stop-color="#ff2d90"/><stop offset=".7" stop-color="#7256ff"/><stop offset="1" stop-color="#7256ff"/></linearGradient></defs></svg>