<svg viewBox="0 0 512 512" xmlns="http://www.w3.org/2000/svg" fill-rule="evenodd" clip-rule="evenodd" stroke-linejoin="round" stroke-miterlimit="2"><path d="M6 506V6" fill="none"/><path d="M9.033 109c-1.633 0-3.046-.638-3.978-1.798-.952-1.185-1.279-2.814-.896-4.47l17.986-77.911C22.899 21.557 26.062 19 29.349 19h89.623c1.634 0 3.047.638 3.978 1.798.952 1.184 1.279 2.814.896 4.47l-17.986 77.911c-.753 3.264-3.917 5.822-7.203 5.822H9.033V109z" fill="url(#prefix___Linear1)" transform="matrix(3.90624 0 0 3.90624 6 6)"/><path d="M118.5 20H29.634c-2.769 0-5.53 2.259-6.168 5.045l-17.834 77.91C4.995 105.742 6.722 108 9.491 108h88.865c2.769 0 5.53-2.258 6.168-5.045l17.834-77.911c.638-2.785-1.09-5.044-3.858-5.044z" fill="url(#prefix___Linear2)" transform="matrix(3.90624 0 0 3.90624 6 6)"/><path d="M256.644 348.023h84.426c9.816 0 17.773 8.3 17.773 18.539 0 10.238-7.957 18.543-17.773 18.543h-84.426c-9.816 0-17.773-8.301-17.773-18.543 0-10.238 7.957-18.54 17.773-18.54zM311.406 265.59c-1.453 2.925-4.47 6.152-9.801 9.898L144.914 388.023c-8.555 6.215-20.836 3.91-27.426-5.153-6.59-9.062-5-21.445 3.555-27.664l141.3-102.32v-2.101l-88.78-94.446c-7.243-7.703-6.49-20.16 1.683-27.828 8.172-7.664 20.664-7.632 27.906.07L309.679 241.91c6.047 6.433 6.496 16.175 1.727 23.68z" fill="#2c5591"/><path d="M307.5 261.683c-1.454 2.926-4.47 6.152-9.801 9.898L141.007 384.116c-8.554 6.215-20.835 3.91-27.425-5.152-6.59-9.062-5-21.445 3.554-27.664l141.301-102.32v-2.102l-88.781-94.445c-7.242-7.703-6.488-20.16 1.683-27.828 8.172-7.664 20.664-7.633 27.907.07l106.527 113.328c6.047 6.434 6.496 16.176 1.726 23.68zM254.242 345.843h84.425c9.817 0 17.774 7.871 17.774 17.578 0 9.707-7.957 17.578-17.774 17.578h-84.425c-9.817 0-17.774-7.87-17.774-17.578 0-9.707 7.957-17.578 17.774-17.578z" fill="#fff"/><defs><linearGradient id="prefix___Linear1" x1="0" y1="0" x2="1" y2="0" gradientUnits="userSpaceOnUse" gradientTransform="rotate(-138.228 65.172 27.787) scale(91.9375)"><stop offset="0" stop-color="#a9c8ff" stop-opacity=".8"/><stop offset="1" stop-color="#c7e6ff" stop-opacity=".8"/></linearGradient><linearGradient id="prefix___Linear2" x1="0" y1="0" x2="1" y2="0" gradientUnits="userSpaceOnUse" gradientTransform="matrix(67 59.5 -59.5 67 26.585 30.778)"><stop offset="0" stop-color="#2d4664"/><stop offset=".17" stop-color="#29405b"/><stop offset=".44" stop-color="#1e2f43"/><stop offset=".79" stop-color="#0c131b"/><stop offset="1"/></linearGradient></defs></svg>