<svg xmlns="http://www.w3.org/2000/svg" viewBox="0 0 64 64"><path d="M42.8 4C36 4 31.4 8.9 28.7 14.4c-1.8-1.1-3.9-1.7-6.2-1.7C15.1 12.7 9 19 9 26.7c0 2.3.6 4.5 1.6 6.4C8.6 35.5 7.5 38.4 7.5 41.5 7.5 51.1 15.2 59 24.7 59c4.6 0 8.8-1.8 12-4.7C38.8 57.2 41.8 58 44.9 58c10.3 0 18.6-8.3 18.6-18.5 0-2-.3-4-.9-5.7C64.1 31.9 65 29.1 65 26c0-12.2-9.9-22-22.2-22z" fill="#003b57"/><path d="M28.5 40.4c-.6 3.1-2.1 5.9-4.3 8.1C26 49.5 28.3 50 30.6 50c3.1 0 6-1 8.4-2.8-3.3-2.2-6.6-4.7-10.5-6.8z" fill="#0f80cc"/></svg>
