<svg viewBox="0 0 512 512" xmlns="http://www.w3.org/2000/svg" fill-rule="evenodd" clip-rule="evenodd" stroke-linejoin="round" stroke-miterlimit="2"><g fill-rule="nonzero"><path d="M328.851 42.23l-50 172.168H506V104.046c0-18.261-7.812-34.765-20.312-45.996-5.274-4.785-11.23-8.593-17.676-11.23-7.227-3.027-15.723-4.59-23.535-4.59H328.85zm43.945 58.594h72.461c1.27 0 2.344 1.074 2.344 2.344v52.734h-90.723l15.918-55.078z" fill="#163578"/><path d="M6 42.23l108.008 380.761c2.734 9.473 5.176 14.453 8.789 19.727 1.27 1.953 2.734 3.71 4.199 5.468a56.846 56.846 0 0012.305 10.938c5.078 3.418 10.156 5.957 15.918 7.812 6.738 2.149 12.695 2.832 20.703 2.832h90.136L306 331.683h141.6v77.148c0 1.27-1.073 2.344-2.343 2.344h-101.66l-16.992 58.593h117.773c16.016 0 29.883-5.664 40.625-15.136 12.89-11.329 20.996-27.344 20.996-46.582V273.089h-244.14l-39.941 138.086H171.43L83.44 100.824h60.84l32.227 113.574h60.742L188.422 42.23H6z" fill="#3360b6"/></g></svg>